<?xml version="1.0" encoding="UTF-8" standalone="no"?>
<!DOCTYPE svg PUBLIC "-//W3C//DTD SVG 1.1//EN"
 "http://www.w3.org/Graphics/SVG/1.1/DTD/svg11.dtd">
<!-- Generated by graphviz version 2.40.1 (20161225.0304)
 -->
<!-- Title: dependencies Pages: 1 -->
<svg width="504pt" height="211pt"
 viewBox="0.00 0.00 504.00 211.00" xmlns="http://www.w3.org/2000/svg" xmlns:xlink="http://www.w3.org/1999/xlink">
<g id="graph0" class="graph" transform="scale(1 1) rotate(0) translate(4 207)">
<title>dependencies</title>
<polygon fill="#ffffff" stroke="transparent" points="-4,4 -4,-207 500,-207 500,4 -4,4"/>
<text text-anchor="start" x="227.0091" y="-42.4" font-family="sans-serif" font-weight="bold" font-size="14.00" fill="#000000">Legend</text>
<polygon fill="#ffffb3" stroke="transparent" points="14,-10 14,-30 34,-30 34,-10 14,-10"/>
<text text-anchor="start" x="37.629" y="-15.4" font-family="sans-serif" font-size="14.00" fill="#000000"> &#160;Declarations</text>
<polygon fill="#8dd3c7" stroke="transparent" points="127,-10 127,-30 147,-30 147,-10 127,-10"/>
<text text-anchor="start" x="150.7251" y="-15.4" font-family="sans-serif" font-size="14.00" fill="#000000"> &#160;Module</text>
<polygon fill="#80b1d3" stroke="transparent" points="213,-10 213,-30 233,-30 233,-10 213,-10"/>
<text text-anchor="start" x="236.7812" y="-15.4" font-family="sans-serif" font-size="14.00" fill="#000000"> &#160;Bootstrap</text>
<polygon fill="#fdb462" stroke="transparent" points="310,-10 310,-30 330,-30 330,-10 310,-10"/>
<text text-anchor="start" x="333.6732" y="-15.4" font-family="sans-serif" font-size="14.00" fill="#000000"> &#160;Providers</text>
<polygon fill="#fb8072" stroke="transparent" points="406,-10 406,-30 426,-30 426,-10 406,-10"/>
<text text-anchor="start" x="429.7258" y="-15.4" font-family="sans-serif" font-size="14.00" fill="#000000"> &#160;Exports</text>
<g id="clust1" class="cluster">
<title>cluster_LightLocalizeRouterModule</title>
<polygon fill="none" stroke="#000000" stroke-dasharray="1,5" points="53,-70 53,-195 443,-195 443,-70 53,-70"/>
</g>
<g id="clust3" class="cluster">
<title>cluster_LightLocalizeRouterModule_imports</title>
<polygon fill="none" stroke="#000000" points="61,-78 61,-130 435,-130 435,-78 61,-78"/>
</g>
<!-- CommonModule -->
<g id="node1" class="node">
<title>CommonModule</title>
<polygon fill="#8dd3c7" stroke="#000000" points="426.6681,-122 423.6681,-126 402.6681,-126 399.6681,-122 315.3319,-122 315.3319,-86 426.6681,-86 426.6681,-122"/>
<text text-anchor="middle" x="371" y="-99.8" font-family="Times,serif" font-size="14.00" fill="#000000">CommonModule</text>
</g>
<!-- LightLocalizeRouterModule -->
<g id="node4" class="node">
<title>LightLocalizeRouterModule</title>
<polygon fill="#8dd3c7" stroke="#000000" points="336.1783,-187 333.1783,-191 312.1783,-191 309.1783,-187 159.8217,-187 159.8217,-151 336.1783,-151 336.1783,-187"/>
<text text-anchor="middle" x="248" y="-164.8" font-family="Times,serif" font-size="14.00" fill="#000000">LightLocalizeRouterModule</text>
</g>
<!-- CommonModule&#45;&gt;LightLocalizeRouterModule -->
<g id="edge1" class="edge">
<title>CommonModule&#45;&gt;LightLocalizeRouterModule</title>
<path fill="none" stroke="#000000" d="M325.6277,-122.1061C325.6277,-122.1061 325.6277,-140.991 325.6277,-140.991"/>
<polygon fill="#000000" stroke="#000000" points="322.1277,-140.9909 325.6277,-150.991 329.1277,-140.991 322.1277,-140.9909"/>
</g>
<!-- RouterModule -->
<g id="node2" class="node">
<title>RouterModule</title>
<polygon fill="#8dd3c7" stroke="#000000" points="296.6528,-122 293.6528,-126 272.6528,-126 269.6528,-122 199.3472,-122 199.3472,-86 296.6528,-86 296.6528,-122"/>
<text text-anchor="middle" x="248" y="-99.8" font-family="Times,serif" font-size="14.00" fill="#000000">RouterModule</text>
</g>
<!-- RouterModule&#45;&gt;LightLocalizeRouterModule -->
<g id="edge2" class="edge">
<title>RouterModule&#45;&gt;LightLocalizeRouterModule</title>
<path fill="none" stroke="#000000" d="M248,-122.1061C248,-122.1061 248,-140.991 248,-140.991"/>
<polygon fill="#000000" stroke="#000000" points="244.5001,-140.9909 248,-150.991 251.5001,-140.991 244.5001,-140.9909"/>
</g>
<!-- TranslateModule -->
<g id="node3" class="node">
<title>TranslateModule</title>
<polygon fill="#8dd3c7" stroke="#000000" points="180.6332,-122 177.6332,-126 156.6332,-126 153.6332,-122 69.3668,-122 69.3668,-86 180.6332,-86 180.6332,-122"/>
<text text-anchor="middle" x="125" y="-99.8" font-family="Times,serif" font-size="14.00" fill="#000000">TranslateModule</text>
</g>
<!-- TranslateModule&#45;&gt;LightLocalizeRouterModule -->
<g id="edge3" class="edge">
<title>TranslateModule&#45;&gt;LightLocalizeRouterModule</title>
<path fill="none" stroke="#000000" d="M170.3636,-122.1061C170.3636,-122.1061 170.3636,-140.991 170.3636,-140.991"/>
<polygon fill="#000000" stroke="#000000" points="166.8637,-140.9909 170.3636,-150.991 173.8637,-140.991 166.8637,-140.9909"/>
</g>
</g>
</svg>
